<svg width="34" height="34" viewBox="0 0 34 34" fill="none" xmlns="http://www.w3.org/2000/svg">
<g id="Icon">
<path id="Subtract" fill-rule="evenodd" clip-rule="evenodd" d="M12.1874 5.38157C13.355 4.03882 15.078 3.1875 17 3.1875C18.9219 3.1875 20.6448 4.03874 21.8124 5.38137C23.5876 5.25734 25.4082 5.87372 26.7674 7.2329C28.1266 8.59206 28.7429 10.4126 28.6189 12.1879C29.9614 13.3554 30.8125 15.0783 30.8125 17C30.8125 18.9221 29.9611 20.6452 28.6182 21.8128C28.7419 23.5878 28.1255 25.4079 26.7666 26.7669C25.4077 28.1258 23.5875 28.7422 21.8125 28.6185C20.645 29.9612 18.9219 30.8125 17 30.8125C15.0782 30.8125 13.3552 29.9613 12.1876 28.6187C10.4124 28.7427 8.59179 28.1263 7.23261 26.7672C5.87344 25.408 5.25705 23.5874 5.38108 21.8122C4.03861 20.6446 3.1875 18.9217 3.1875 17C3.1875 15.0782 4.0387 13.3552 5.38128 12.1877C5.25739 10.4126 5.87379 8.59218 7.23285 7.23313C8.59191 5.87407 10.4123 5.25767 12.1874 5.38157ZM22.1146 14.4301C22.4557 13.9526 22.3451 13.289 21.8676 12.9479C21.3901 12.6068 20.7265 12.7174 20.3854 13.1949L15.8019 19.6118L13.5013 17.3112C13.0864 16.8963 12.4136 16.8963 11.9987 17.3112C11.5838 17.7261 11.5838 18.3989 11.9987 18.8138L15.1862 22.0013C15.407 22.2221 15.7139 22.3346 16.0251 22.3089C16.3364 22.2831 16.6206 22.1217 16.8021 21.8676L22.1146 14.4301Z" fill="#5700FF"/>
</g>
</svg>
